<?xml version="1.0" standalone="no"?>
<!DOCTYPE svg PUBLIC "-//W3C//DTD SVG 20010904//EN"
 "http://www.w3.org/TR/2001/REC-SVG-20010904/DTD/svg10.dtd">
<svg version="1.0" xmlns="http://www.w3.org/2000/svg"
 width="729.000000pt" height="729.000000pt" viewBox="0 0 729.000000 729.000000"
 preserveAspectRatio="xMidYMid meet">
<metadata>
Created by potrace 1.14, written by Peter Selinger 2001-2017
</metadata>
<g transform="translate(0.000000,729.000000) scale(0.100000,-0.100000)"
fill="#000000" stroke="none">
<path d="M37 7258 c8 -36 8 -51 4 -118 l-3 -45 -16 35 -17 35 -3 -89 c-2 -56
1 -92 8 -96 8 -5 8 -15 1 -34 -7 -18 -11 -503 -11 -1451 l0 -1425 53 1 c68 2
96 -7 106 -34 12 -35 -9 -407 -25 -446 l-14 -34 -60 6 -60 5 0 -218 0 -219
190 6 c201 6 220 3 220 -39 0 -11 -10 -28 -22 -38 -21 -16 -22 -27 -24 -146
-1 -71 -7 -149 -14 -173 -8 -32 -9 -61 -1 -105 19 -112 20 -137 9 -164 -10
-26 -25 -193 -33 -365 -3 -85 -10 -101 -29 -75 -10 13 -12 79 -9 275 3 142 3
303 2 358 -2 55 -3 166 -3 248 0 98 -3 147 -10 148 -6 0 -71 2 -143 4 l-133 4
0 -549 0 -549 41 -11 c51 -14 79 -10 93 12 15 24 -15 73 -44 72 -11 0 -20 5
-20 13 0 7 9 13 19 13 14 0 24 13 36 44 17 45 42 67 50 43 18 -61 23 -253 6
-270 -17 -17 -13 -44 11 -67 17 -16 29 -19 53 -14 16 4 41 7 54 6 14 -1 34 6
45 17 38 34 60 34 97 0 40 -37 73 -47 190 -54 76 -5 87 -3 103 14 20 22 23 48
12 103 -7 32 -5 40 20 65 17 17 29 23 32 15 2 -7 10 -12 18 -12 21 0 28 -46
17 -109 -6 -31 -8 -61 -6 -68 7 -17 83 -27 135 -17 24 5 50 7 58 6 8 -1 39 3
68 9 40 9 58 9 78 0 21 -9 38 -8 85 5 50 14 66 15 98 4 28 -9 47 -9 76 -1 46
12 51 10 59 -30 5 -25 0 -43 -22 -78 -53 -88 -62 -109 -62 -152 0 -39 -5 -47
-62 -104 -35 -33 -73 -74 -84 -90 l-21 -30 5 35 c5 33 4 34 -14 20 -38 -30
-43 -45 -44 -128 l0 -83 -42 -19 c-24 -11 -61 -20 -84 -20 -32 0 -46 -6 -67
-30 -29 -32 -55 -37 -86 -18 -38 23 -68 -13 -37 -45 24 -23 30 -81 11 -97 -14
-12 -20 -9 -46 21 -16 19 -29 37 -29 41 0 3 -13 9 -29 13 -27 6 -29 9 -34 73
-6 66 -6 67 28 99 30 29 37 31 67 23 18 -5 43 -15 56 -22 17 -9 25 -9 34 0 9
9 4 19 -20 42 -38 36 -39 44 -10 64 43 30 98 15 98 -26 0 -26 25 -22 100 15
40 20 66 39 69 51 2 14 -1 17 -13 13 -9 -4 -16 -2 -16 4 0 6 -4 8 -8 5 -5 -3
-19 1 -33 7 -36 19 -84 19 -135 2 -30 -10 -50 -12 -62 -6 -9 6 -30 13 -46 16
-16 3 -41 18 -56 33 -25 25 -33 27 -118 29 l-92 2 0 -27 c0 -15 7 -45 15 -67
21 -60 19 -84 -10 -97 -14 -6 -25 -17 -25 -24 0 -14 25 -25 43 -19 6 3 18 1
26 -4 12 -8 12 -12 2 -25 -8 -9 -22 -16 -33 -16 -16 0 -18 -3 -9 -14 9 -10 7
-19 -9 -37 l-19 -24 -1 23 c0 12 -4 22 -10 22 -5 0 -10 7 -10 15 0 8 4 15 9
15 10 0 10 125 -1 135 -4 4 -5 12 -3 18 3 7 -6 24 -18 39 -29 36 -108 53 -148
34 -24 -12 -30 -11 -55 10 -30 27 -46 29 -72 13 -12 -8 -17 -20 -14 -35 3 -14
0 -24 -8 -24 -7 0 -9 -8 -5 -20 3 -11 2 -20 -4 -20 -15 0 -22 34 -23 105 0 53
-3 65 -17 65 -25 0 -44 -17 -38 -33 4 -12 -7 -14 -69 -13 l-74 2 0 -233 0
-233 26 0 c34 0 54 22 54 60 0 18 4 29 10 25 10 -6 8 -60 -3 -72 -4 -3 -7 -15
-7 -26 0 -16 -5 -18 -40 -12 l-40 7 0 -466 0 -466 930 0 930 0 0 29 c0 16 3
42 6 59 5 27 2 33 -39 60 -33 23 -46 39 -49 63 -6 41 9 45 67 19 25 -12 67
-24 93 -27 l47 -5 36 -97 35 -96 1852 -3 c1596 -2 1853 0 1858 12 3 8 7 22 8
32 7 49 62 38 68 -14 3 -26 6 -27 71 -30 55 -2 75 1 101 17 18 12 35 18 38 15
4 -3 24 0 46 7 37 11 43 10 74 -12 l33 -24 543 -3 542 -2 0 798 0 799 -25 11
c-33 15 -35 15 -35 -3 0 -14 -31 -37 -47 -34 -22 4 -31 -3 -38 -28 -4 -16 -11
-34 -17 -40 -15 -18 -65 -16 -72 3 -12 30 -6 44 27 60 17 9 42 27 55 40 23 22
23 23 3 33 -13 7 -22 8 -26 1 -3 -5 -16 -10 -28 -10 -12 0 -33 -9 -47 -19 -19
-16 -24 -29 -25 -64 0 -49 -25 -87 -56 -87 -26 0 -76 -46 -114 -105 -32 -51
-91 -105 -113 -105 -6 0 -18 13 -26 28 -13 25 -13 37 -1 87 13 58 17 62 80 95
38 19 55 75 36 117 -7 15 -15 22 -19 17 -9 -13 -43 -23 -106 -31 -104 -12
-107 -15 -90 -85 5 -21 3 -28 -9 -28 -35 0 -25 -30 23 -65 28 -20 50 -43 50
-51 0 -16 -16 -19 -25 -4 -4 6 -10 8 -15 5 -4 -3 -10 4 -13 15 -6 22 -49 42
-72 34 -10 -4 -18 3 -24 20 -6 14 -24 32 -41 41 -23 12 -30 21 -25 35 8 26
-14 48 -43 42 -19 -4 -22 -9 -17 -26 4 -11 9 -33 12 -48 3 -15 9 -26 13 -23 4
2 12 -7 19 -22 16 -34 26 -113 15 -113 -19 0 -32 16 -37 45 l-4 30 -2 -33 c-1
-26 -5 -33 -18 -30 -16 3 -18 16 -16 112 2 102 0 111 -23 141 -13 18 -24 40
-24 49 0 10 -17 34 -38 55 l-38 37 4 -34 5 -35 -30 21 c-18 13 -33 34 -37 53
-9 47 -8 51 14 44 24 -8 24 -4 5 59 -8 26 -12 52 -9 57 3 5 0 25 -6 43 -11 34
-22 117 -24 186 -1 40 18 49 63 29 26 -12 28 -16 23 -56 -3 -31 -1 -44 10 -48
16 -6 69 11 78 25 3 5 33 10 65 11 33 1 69 6 79 11 10 6 33 12 50 14 72 10 96
17 96 29 0 7 -10 15 -23 19 -12 3 -32 14 -43 25 -12 10 -30 21 -40 23 -22 4
-30 39 -14 67 14 27 34 26 62 -2 13 -13 36 -31 51 -41 20 -12 27 -23 24 -37
-3 -10 -1 -19 4 -19 5 0 9 4 9 8 0 10 87 42 113 42 9 0 17 -4 17 -8 0 -9 66
-43 77 -39 5 1 7 8 5 15 -2 7 1 11 5 10 4 -1 18 3 31 11 36 20 66 11 70 -21 3
-22 9 -28 26 -28 32 0 41 -14 54 -90 14 -77 11 -113 -11 -138 -10 -10 -17 -22
-17 -27 0 -16 -52 -55 -74 -55 -30 0 -47 48 -22 62 22 12 20 28 -3 28 -14 0
-21 -8 -23 -27 -3 -26 -7 -28 -53 -30 -121 -6 -157 -14 -181 -40 -37 -40 -26
-94 12 -62 11 9 69 14 192 16 97 2 202 5 232 5 30 1 81 -2 113 -6 l57 -9 0 65
c0 46 -5 69 -15 78 -26 21 -29 73 -6 118 17 34 18 41 6 46 -19 7 -19 50 0 66
8 7 15 27 15 45 0 27 -5 34 -25 39 -33 8 -32 37 0 95 23 40 25 52 25 182 0
105 -3 139 -13 139 -7 0 -18 -9 -25 -20 -16 -26 -36 -25 -73 2 l-30 23 -32
-35 c-28 -31 -38 -36 -77 -35 -39 0 -45 3 -54 27 -8 23 -6 33 13 59 23 31 23
32 7 83 -32 96 -48 244 -47 419 l2 169 -43 -7 c-39 -7 -41 -6 -25 10 9 9 17
22 17 30 0 26 85 102 122 109 28 5 39 13 47 36 5 17 17 33 26 36 20 8 62 -20
70 -46 3 -11 14 -20 24 -20 22 0 56 -35 75 -80 14 -32 15 38 16 728 0 668 -2
765 -15 779 -16 15 -11 38 6 28 5 -4 9 35 9 95 0 87 -2 101 -17 107 -41 14
-43 24 -12 52 29 27 30 29 27 116 l-3 88 -32 2 c-18 2 -33 -1 -33 -6 0 -15
-15 -10 -38 12 -12 11 -27 17 -32 14 -6 -3 -10 0 -10 8 0 12 7 13 35 7 41 -9
51 0 34 32 -17 32 -17 66 -1 73 8 3 20 -1 26 -9 6 -7 21 -16 34 -19 l22 -5 0
304 c0 254 -2 306 -14 310 -29 11 -29 64 0 64 11 0 14 16 14 64 0 55 -3 64
-20 69 -13 3 -20 14 -20 29 0 27 21 78 33 78 4 0 7 198 7 440 l-1 440 -111 0
c-87 0 -108 -3 -100 -12 5 -7 12 -24 14 -36 3 -22 -1 -24 -40 -27 -24 -2 -40
1 -36 6 7 11 -63 42 -76 34 -13 -8 -13 -25 1 -25 15 0 39 -26 32 -34 -4 -3 -1
-6 5 -6 7 0 12 -6 12 -13 0 -8 11 -19 25 -25 14 -7 25 -20 25 -31 0 -21 37
-35 64 -25 22 8 21 -24 -2 -54 -15 -19 -22 -21 -42 -14 -16 6 -33 5 -47 -1
-25 -11 -101 7 -115 28 -13 18 -9 33 12 40 36 12 20 75 -20 75 -8 0 -27 -11
-42 -25 -15 -14 -29 -25 -31 -25 -2 0 -16 11 -31 25 -15 14 -33 25 -40 25 -19
0 -28 -28 -16 -50 9 -17 14 -70 7 -70 -2 0 -18 7 -35 16 -23 11 -32 22 -32 40
0 38 -16 60 -60 85 -39 22 -54 59 -30 74 27 17 2 25 -72 24 -46 -1 -74 -4 -63
-6 11 -3 29 -12 40 -19 19 -14 19 -14 -1 -14 -11 0 -29 -7 -40 -15 -20 -13
-22 -12 -33 11 -6 14 -9 30 -6 35 4 5 -7 9 -23 9 -21 0 -31 -6 -35 -20 -3 -11
-13 -20 -22 -20 -9 0 -19 9 -22 20 -5 20 -14 20 -859 20 -550 0 -861 -4 -874
-10 -11 -5 -29 -15 -40 -20 -15 -8 -30 -5 -62 10 -36 17 -62 20 -186 20 l-144
0 24 -30 c13 -17 35 -46 50 -64 48 -58 20 -103 -44 -70 -20 11 -28 22 -28 42
0 15 -10 48 -22 75 l-23 47 -1818 0 c-1229 0 -1816 -3 -1812 -10 4 -6 11 -8
16 -5 10 7 13 -74 3 -99 -15 -39 -45 -4 -34 39 6 23 -1 59 -13 67 -6 4 -33 8
-59 8 -40 0 -47 -3 -51 -22 l-4 -23 -2 23 c-1 22 -3 22 -146 22 l-144 0 6 -32z
m5008 -19 c19 -18 37 -40 40 -50 4 -11 17 -22 31 -25 13 -4 29 -15 34 -25 8
-15 5 -22 -15 -35 -20 -13 -29 -14 -38 -5 -6 6 -23 11 -37 11 -15 0 -42 7 -60
16 -27 14 -38 15 -69 5 -40 -14 -94 -1 -89 21 1 7 -6 26 -17 42 -10 16 -20 37
-20 48 -2 17 3 19 34 13 20 -4 38 -10 41 -15 6 -10 78 -40 88 -37 8 2 7 25 -2
47 -13 30 42 22 79 -11z m-1636 -18 c8 -5 11 -16 8 -25 -7 -17 -27 -22 -27 -7
0 5 -3 16 -6 25 -7 18 4 20 25 7z m2794 -43 c15 -23 -9 -53 -29 -37 -20 17
-18 61 2 57 9 -2 22 -10 27 -20z m-3116 4 c19 -12 -16 -282 -37 -282 -4 0 -6
-9 -3 -19 3 -12 -5 -33 -21 -54 -14 -19 -26 -39 -26 -44 0 -15 -24 -23 -40
-13 -10 6 -9 20 5 71 10 35 21 89 26 119 32 217 48 253 96 222z m1028 -23 c5
-5 0 -9 -13 -9 -12 0 -22 -4 -22 -10 0 -16 -46 -12 -61 6 -10 13 -10 17 1 24
15 9 80 2 95 -11z m-1235 1 c0 -5 -2 -10 -4 -10 -3 0 -8 5 -11 10 -3 6 -1 10
4 10 6 0 11 -4 11 -10z m3560 -12 c29 -21 31 -21 65 -5 49 23 70 21 95 -10 24
-30 22 -47 -6 -51 -65 -10 -67 -11 -61 -50 5 -25 2 -41 -8 -53 -9 -9 -17 -37
-19 -63 -4 -56 -11 -65 -59 -73 -33 -5 -37 -3 -47 23 -9 23 -8 31 4 40 19 14
20 22 4 57 -10 20 -20 27 -41 27 -32 0 -77 -21 -96 -44 -8 -9 -29 -16 -47 -16
-31 0 -34 3 -34 31 0 25 -6 32 -36 45 -32 14 -35 18 -32 52 3 35 5 37 38 37
26 0 37 -5 45 -22 5 -12 17 -24 27 -27 16 -4 18 0 12 29 -8 43 20 84 57 85 36
0 52 -22 44 -59 -5 -24 -1 -38 21 -66 l27 -36 34 35 c19 19 32 39 29 45 -3 5
2 12 12 16 13 6 7 10 -23 15 -26 5 -42 4 -47 -4 -5 -8 -11 -7 -20 2 -11 11
-10 15 5 23 9 6 17 17 17 24 0 20 6 19 40 -7z m-2060 -8 c22 -6 47 -6 71 0 32
9 44 7 75 -9 22 -12 42 -17 48 -12 19 15 66 22 66 11 0 -7 9 -5 21 4 21 14 70
13 94 -4 6 -3 29 -12 52 -20 37 -11 44 -18 50 -49 4 -20 6 -40 5 -45 -2 -4 3
-14 9 -22 9 -11 8 -14 -5 -14 -9 0 -21 11 -26 24 -5 14 -19 26 -31 28 -16 2
-25 13 -31 36 -8 28 -12 32 -31 26 -21 -7 -46 -31 -47 -47 0 -4 -11 -12 -25
-17 -21 -8 -33 -5 -64 15 -34 21 -44 23 -75 14 -24 -7 -48 -7 -72 0 -37 10
-84 0 -84 -19 0 -5 -13 -10 -30 -10 -20 0 -30 5 -30 15 0 8 6 15 12 15 7 0 2
7 -10 16 -14 10 -22 25 -22 45 0 33 17 37 80 19z m875 -20 c17 -7 15 -9 -12
-9 -17 -1 -35 4 -38 9 -7 12 22 12 50 0z m-2085 -58 c0 -15 6 -39 14 -53 7
-15 14 -39 14 -55 0 -25 -2 -26 -14 -10 -24 33 -45 164 -24 151 6 -3 10 -18
10 -33z m-286 -27 c-6 -25 -53 -50 -50 -27 2 13 47 54 53 48 1 -1 0 -11 -3
-21z m2263 19 c16 -4 21 -13 20 -32 -2 -21 3 -27 18 -28 11 -1 22 -3 25 -4 3
-1 29 -4 59 -5 29 -2 58 -8 64 -14 15 -15 0 -41 -25 -41 -39 0 -108 -33 -108
-52 0 -13 -6 -11 -31 11 -27 25 -30 33 -24 60 4 20 2 37 -5 46 -14 17 -66 20
-75 4 -4 -6 -13 -8 -21 -5 -9 3 -18 -2 -21 -12 -9 -23 -23 -32 -56 -32 -23 0
-31 7 -43 35 -21 51 -19 69 9 60 37 -13 138 -7 154 9 8 7 31 8 60 0z m60 -10
c-3 -3 -12 -4 -19 -1 -8 3 -5 6 6 6 11 1 17 -2 13 -5z m832 -24 c5 -17 17 -33
26 -36 9 -4 21 -17 26 -31 5 -13 20 -28 35 -33 14 -6 33 -17 41 -26 9 -9 33
-27 55 -40 21 -13 38 -31 38 -39 0 -25 22 -29 39 -6 16 20 19 21 45 8 37 -20
87 -89 76 -106 -13 -22 -85 17 -85 46 0 13 -4 23 -8 23 -4 0 -13 0 -21 0 -30
0 -44 -28 -39 -72 3 -24 9 -47 14 -52 13 -14 11 -26 -4 -26 -11 0 -19 12 -58
93 -10 21 -19 27 -38 25 -22 -3 -27 -9 -32 -45 -3 -24 -8 -46 -12 -49 -16 -16
-21 12 -20 106 1 85 -1 100 -18 116 -22 19 -56 41 -81 50 -19 7 -28 34 -28 87
0 30 4 37 19 37 12 0 23 -11 30 -30z m615 -15 c3 -8 16 -15 28 -15 19 0 17 -3
-13 -19 -41 -22 -139 -43 -139 -30 0 5 6 9 14 9 8 0 17 9 21 20 6 18 47 47 71
49 7 1 14 -6 18 -14z m-5778 -31 c38 -11 60 -24 72 -42 9 -15 25 -36 34 -46
13 -14 15 -24 7 -37 -5 -11 -14 -19 -18 -19 -5 0 -41 27 -80 59 -39 33 -80 63
-91 66 -20 6 -26 25 -13 39 4 3 13 4 20 1 8 -2 38 -12 69 -21z m3338 4 c13
-22 -5 -44 -28 -35 -22 9 -22 60 0 55 9 -2 22 -11 28 -20z m-529 -28 c8 -24
-1 -40 -21 -40 -20 0 -29 27 -14 45 17 20 27 19 35 -5z m-3550 -32 c1 -2 11
-17 23 -35 12 -17 22 -38 22 -46 0 -8 6 -17 14 -20 8 -3 18 -26 21 -52 4 -25
11 -47 15 -50 4 -3 14 -29 20 -57 7 -29 21 -69 31 -90 18 -36 18 -37 -4 -77
-12 -23 -27 -39 -34 -36 -7 2 -15 -1 -19 -7 -4 -6 -15 4 -26 26 -10 20 -25 36
-33 36 -11 0 -14 7 -11 23 17 84 12 117 -34 208 -11 21 -20 55 -20 77 0 21 -4
42 -9 48 -4 5 -11 21 -15 36 -6 25 -4 26 25 23 18 -3 33 -6 34 -7z m4563 -36
c2 -8 -8 -12 -30 -11 -18 1 -25 3 -15 6 9 2 17 9 17 15 0 13 23 5 28 -10z
m686 12 c18 -7 12 -24 -10 -24 -8 0 -14 7 -14 15 0 17 2 18 24 9z m117 -36 c6
-25 4 -28 -16 -28 -28 0 -49 24 -41 46 10 25 49 13 57 -18z m-2007 -5 c8 -19
-8 -38 -23 -29 -16 10 -13 46 3 46 8 0 17 -8 20 -17z m764 -5 c14 -14 15 -47
3 -67 -8 -12 -16 -10 -45 13 -47 36 -48 66 -3 66 18 0 38 -5 45 -12z m-378
-18 c13 0 40 -59 30 -65 -20 -12 -90 19 -90 40 0 14 26 34 38 30 8 -3 17 -5
22 -5z m-3583 -44 c4 -7 29 -24 54 -38 25 -13 61 -40 78 -61 18 -20 38 -37 45
-37 6 0 20 -13 29 -29 10 -17 26 -32 36 -36 25 -8 46 -55 30 -66 -19 -11 -40
4 -113 76 -83 83 -125 76 -70 -12 16 -26 18 -59 4 -68 -28 -17 -95 82 -76 113
4 6 -2 30 -13 54 -10 24 -21 52 -24 63 -3 11 -8 28 -12 38 -9 21 20 24 32 3z
m4498 5 c3 -5 1 -12 -5 -16 -6 -4 -8 -11 -5 -16 4 -5 2 -9 -3 -9 -11 0 -23 36
-14 44 8 9 20 7 27 -3z m2193 -27 c11 -23 10 -26 -23 -40 -33 -13 -35 -17 -31
-51 3 -20 9 -40 14 -45 9 -9 5 -48 -5 -48 -5 0 -53 51 -53 57 0 2 5 13 11 24
8 16 6 29 -8 58 -22 44 -20 61 6 54 10 -3 22 0 25 6 13 21 52 12 64 -15z
m-1834 -79 c20 -8 36 -22 36 -29 0 -25 -12 -46 -26 -46 -8 0 -14 -6 -14 -13 0
-8 -8 -21 -18 -31 -18 -15 -21 -15 -45 5 -20 15 -27 30 -27 55 0 19 5 34 11
34 7 0 9 -10 7 -25 -4 -18 0 -26 14 -31 24 -7 25 -6 34 30 5 22 4 27 -6 21
-13 -8 -30 10 -30 33 0 16 20 15 64 -3z m1306 -5 c0 -5 15 -13 34 -20 30 -10
52 -40 39 -54 -15 -15 -118 67 -107 86 6 9 34 -1 34 -12z m-2247 -11 c13 -8
22 -8 24 -2 8 23 170 -27 203 -62 55 -58 -14 -80 -78 -24 -25 23 -39 28 -55
22 -12 -4 -35 -8 -50 -8 -31 -2 -47 -18 -47 -49 0 -11 -8 -37 -17 -58 -25 -57
-52 -49 -70 21 -16 64 -23 74 -68 96 -22 10 -35 23 -35 35 0 23 25 27 34 5 3
-8 14 -15 25 -15 11 0 26 7 35 15 8 8 22 15 30 15 9 0 16 5 16 10 0 13 26 13
53 -1z m-313 -8 c0 -5 -7 -11 -15 -15 -9 -3 -15 0 -15 9 0 8 7 15 15 15 8 0
15 -4 15 -9z m920 0 c0 -6 -4 -13 -10 -16 -5 -3 -10 1 -10 9 0 9 5 16 10 16 6
0 10 -4 10 -9z m-4700 -46 c10 -12 10 -18 0 -30 -16 -19 -40 -3 -40 26 0 23
23 25 40 4z m4700 -5 c0 -19 -18 -19 -23 -1 -3 14 -1 18 9 14 8 -3 14 -9 14
-13z m1796 10 c18 0 18 -21 1 -44 -12 -17 -14 -17 -37 2 -26 21 -22 59 6 48 9
-3 22 -6 30 -6z m-1276 -10 c0 -5 -5 -10 -11 -10 -5 0 -7 5 -4 10 3 6 8 10 11
10 2 0 4 -4 4 -10z m-448 -34 c27 4 37 1 42 -11 10 -26 -2 -35 -47 -35 -46 0
-60 7 -70 32 -8 21 2 29 22 18 9 -4 33 -6 53 -4z m-235 -72 c28 -29 29 -87 2
-92 -18 -3 -79 55 -79 75 0 6 -5 13 -12 15 -7 3 -9 12 -5 22 9 24 61 13 94
-20z m1063 7 c0 -9 9 -22 20 -29 12 -7 20 -18 19 -25 -1 -7 3 -24 9 -39 11
-27 7 -58 -7 -58 -25 1 -33 20 -27 62 7 49 -7 72 -40 66 -9 -2 -19 3 -22 11
-3 9 0 11 8 6 10 -6 12 -3 8 12 -4 16 -2 19 13 16 11 -3 19 -13 19 -22z m358
4 c37 -18 52 -31 52 -45 0 -12 7 -20 16 -20 15 0 37 -15 102 -70 13 -11 29
-20 36 -20 25 0 77 32 72 45 -2 7 0 17 6 23 15 15 1 32 -27 32 -16 0 -25 7
-29 26 -4 15 -3 31 2 36 16 16 47 4 50 -20 2 -13 19 -33 38 -45 18 -12 34 -29
34 -37 1 -35 24 -48 80 -47 l55 2 -2 -30 c-1 -16 -8 -32 -15 -34 -25 -8 -65
-60 -64 -83 1 -22 -2 -23 -54 -22 -108 3 -210 40 -210 77 0 13 -22 35 -64 62
-24 16 -26 15 -58 -15 l-33 -32 28 -24 c16 -14 41 -24 58 -24 23 0 29 -4 29
-22 0 -13 -11 -36 -23 -52 l-24 -29 -10 30 c-9 25 -16 30 -35 26 -26 -5 -40
16 -71 102 -11 30 -21 41 -40 43 -20 2 -26 -2 -31 -24 -5 -20 -3 -30 9 -37 12
-6 13 -12 5 -22 -8 -9 -8 -15 0 -20 7 -4 1 -18 -15 -37 -21 -25 -23 -33 -13
-40 9 -7 7 -8 -7 -3 -24 8 -24 8 -52 6 -13 0 -23 -7 -23 -16 0 -8 -4 -15 -10
-15 -5 0 -10 -7 -10 -15 0 -13 -4 -14 -20 -5 -12 6 -20 21 -20 35 0 14 -5 34
-12 44 -9 15 -9 23 1 35 14 16 36 12 26 -5 -11 -16 19 -9 43 11 17 14 21 25
16 45 -5 22 -11 26 -38 23 -22 -2 -31 1 -31 12 0 8 -3 20 -7 25 -4 6 14 10 47
11 56 1 125 34 125 60 0 22 28 28 54 11 44 -29 63 23 26 70 -18 23 -26 43 -17
43 2 0 27 -11 55 -25z m-2425 -105 c44 -88 48 -101 49 -175 1 -61 -1 -80 -12
-80 -7 0 -17 7 -21 15 -36 65 -52 112 -53 157 -1 28 -5 55 -9 59 -4 4 -7 15
-7 25 0 10 -11 26 -25 35 -14 9 -25 23 -25 30 0 8 -4 14 -10 14 -5 0 -10 -5
-10 -12 0 -6 -3 -9 -6 -6 -3 4 -1 15 5 26 8 16 17 18 43 13 29 -6 38 -17 81
-101z m1057 95 c0 -8 -4 -15 -10 -15 -5 0 -10 7 -10 15 0 8 5 15 10 15 6 0 10
-7 10 -15z m-150 -91 c0 -8 -5 -12 -10 -9 -6 4 -8 11 -5 16 9 14 15 11 15 -7z
m2400 -3 c0 -10 -6 -24 -14 -30 -12 -10 -17 -8 -26 9 -13 25 -6 40 21 40 12 0
19 -7 19 -19z m-3493 -2 c9 -9 0 -29 -34 -80 -25 -38 -49 -69 -54 -69 -4 0
-14 -3 -23 -6 -11 -4 -16 -1 -16 10 0 9 4 16 8 16 5 0 16 18 26 40 18 41 62
100 75 100 4 0 12 -5 18 -11z m2139 -3 c8 -8 14 -19 14 -25 0 -6 4 -11 9 -11
22 0 41 -34 41 -71 0 -39 0 -39 -39 -39 -52 0 -85 38 -75 84 4 17 8 40 9 51 1
11 3 21 4 23 3 7 24 0 37 -12z m-870 -70 c-8 -31 -36 -34 -53 -6 -11 17 -9 21
15 33 33 17 47 7 38 -27z m78 -2 c9 -22 -3 -32 -14 -14 -12 19 -12 30 -1 30 5
0 12 -7 15 -16z m1956 -9 c0 -20 -5 -25 -25 -25 -29 0 -33 17 -7 36 25 19 32
17 32 -11z m-1901 -109 c10 -12 8 -17 -10 -26 -17 -10 -24 -9 -36 3 -9 8 -12
20 -9 26 10 16 41 14 55 -3z m2097 -71 c-21 -22 -45 -8 -44 25 1 19 8 32 22
38 18 8 22 5 29 -20 5 -20 4 -33 -7 -43z m214 51 c0 -8 -5 -27 -12 -43 l-11
-28 -7 30 c-6 29 4 55 21 55 5 0 9 -6 9 -14z m-434 -11 c6 -15 -12 -45 -27
-45 -11 0 -22 38 -14 50 9 15 35 12 41 -5z m-2056 -4 c0 -12 -20 -25 -27 -18
-7 7 6 27 18 27 5 0 9 -4 9 -9z m80 -1 c0 -13 -20 -13 -40 0 -12 8 -9 10 13
10 15 0 27 -4 27 -10z m-626 -6 c9 -3 16 -12 16 -20 0 -8 4 -14 10 -14 18 0
37 -54 33 -91 -3 -21 0 -40 6 -43 6 -4 11 -16 11 -27 0 -23 9 -24 36 -5 17 13
25 11 69 -13 51 -28 69 -51 40 -51 -14 0 -16 -6 -11 -37 4 -21 9 -46 12 -56 4
-13 -1 -20 -15 -24 -12 -3 -21 -9 -21 -14 0 -5 -7 -9 -15 -9 -10 0 -15 -10
-15 -30 0 -88 -63 26 -90 164 -7 33 -16 68 -21 78 -5 10 -13 27 -19 38 -5 11
-10 29 -10 41 0 25 -15 54 -41 80 -28 28 -13 48 25 33z m1326 -9 c0 -14 -32
-13 -37 1 -2 6 5 11 17 10 11 0 20 -5 20 -11z m-695 -14 c3 -5 1 -13 -5 -16
-15 -9 -43 3 -35 15 8 13 32 13 40 1z m830 -25 c19 -19 40 -36 46 -38 13 -4
29 -119 19 -133 -12 -15 -14 -47 -5 -79 8 -31 -7 -49 -33 -39 -11 5 -13 18
-10 54 6 61 -7 67 -48 23 -18 -19 -40 -34 -49 -34 -15 0 -17 6 -11 48 4 26 11
83 17 127 15 123 18 125 74 71z m465 26 c0 -9 -43 -52 -52 -52 -8 0 -12 43 -4
51 7 6 56 8 56 1z m-1442 -37 c16 -34 15 -41 -5 -65 -22 -25 -27 -25 -64 2
l-30 22 38 33 c21 18 41 32 44 33 3 0 11 -11 17 -25z m32 21 c0 -3 -4 -8 -10
-11 -5 -3 -10 -1 -10 4 0 6 5 11 10 11 6 0 10 -2 10 -4z m1757 -33 c1 -31 -11
-43 -43 -43 -30 0 -37 27 -14 50 29 29 55 26 57 -7z m676 -44 c16 -9 22 -9 25
0 5 16 22 14 44 -6 18 -16 18 -17 -2 -28 -20 -11 -19 -12 17 -31 41 -21 55
-57 28 -68 -21 -8 -35 1 -35 22 0 9 -11 22 -25 29 -19 9 -25 8 -25 -1 0 -9
-12 -11 -37 -7 -45 7 -66 19 -81 46 -9 16 -6 22 16 37 32 21 46 22 75 7z
m-2685 -20 c10 -15 11 -24 3 -32 -15 -15 -46 16 -38 37 9 22 20 20 35 -5z
m1362 -6 c0 -11 -4 -11 -20 -3 -11 6 -20 15 -20 19 0 5 9 7 20 4 11 -3 20 -12
20 -20z m-1660 -9 c15 -39 12 -46 -17 -42 -17 2 -29 10 -31 21 -9 48 31 65 48
21z m680 -22 c0 -10 3 -22 7 -25 12 -12 12 -61 1 -68 -6 -4 -24 6 -39 22 -15
16 -36 29 -47 29 -22 0 -37 26 -21 36 15 9 61 22 82 23 10 1 17 -6 17 -17z
m1024 3 c-4 -8 -2 -15 3 -15 14 0 93 -75 93 -88 0 -18 -18 -14 -24 6 -4 9 -20
24 -37 32 -17 8 -40 30 -51 48 l-20 32 21 0 c14 0 19 -5 15 -15z m1076 -4 c5
-11 10 -38 10 -61 0 -32 -4 -42 -22 -50 -13 -6 -30 -14 -38 -18 -53 -31 -62
-34 -58 -20 2 7 14 17 25 23 21 9 41 61 45 118 3 31 23 36 38 8z m-2310 -31
c0 -5 -7 -10 -15 -10 -8 0 -15 5 -15 10 0 6 7 10 15 10 8 0 15 -4 15 -10z
m-1100 -16 c24 -9 64 -14 89 -13 38 3 45 0 52 -19 9 -25 19 -27 39 -9 8 6 12
8 8 3 -4 -4 0 -16 9 -25 16 -15 15 -16 -5 -19 -12 -2 -22 -8 -22 -13 0 -15 46
-10 60 6 10 12 8 18 -11 34 l-23 18 49 7 c39 6 51 5 61 -8 6 -9 16 -16 21 -16
6 0 18 -11 27 -24 8 -13 28 -27 44 -31 16 -3 39 -15 50 -25 12 -11 24 -20 26
-20 3 0 21 -16 39 -36 20 -22 43 -36 60 -37 15 -1 29 -7 31 -13 2 -6 21 -15
42 -19 52 -9 114 -42 114 -60 0 -19 -5 -19 -35 1 -24 16 -25 16 -25 -10 0 -14
-4 -26 -10 -26 -16 0 0 -27 25 -40 30 -16 48 -58 47 -112 -1 -39 4 -47 56 -98
68 -65 93 -107 73 -120 -8 -4 -10 -13 -7 -19 12 -19 -13 -12 -34 9 -26 26 -40
18 -40 -21 0 -28 -2 -30 -32 -27 l-32 3 2 -72 c1 -40 -3 -75 -8 -78 -6 -4 -4
-17 5 -35 18 -35 18 -40 3 -40 -6 0 -8 3 -5 7 4 3 -2 12 -13 20 -22 16 -26 53
-8 71 9 9 9 21 0 50 -7 22 -12 61 -12 87 0 44 -18 92 -47 123 -7 7 -13 18 -13
23 0 6 -9 7 -20 4 -13 -4 -22 -1 -26 9 -3 9 -12 16 -20 16 -8 0 -14 5 -14 11
0 6 -7 9 -15 5 -16 -6 -19 3 -15 43 1 13 -3 27 -9 31 -10 5 -14 34 -20 138 -1
6 -9 12 -18 12 -17 1 -17 2 -2 13 24 18 -1 50 -40 50 -27 0 -28 1 -12 16 9 9
11 12 4 7 -22 -14 -27 1 -15 43 16 51 16 50 -13 61 -16 6 -23 15 -19 24 7 18
-29 39 -42 26 -6 -6 -31 -6 -62 -1 -57 9 -62 7 -62 -22 0 -16 5 -18 29 -15 34
5 32 -13 -2 -30 l-22 -11 23 0 c33 -1 27 -18 -13 -37 -19 -9 -35 -21 -35 -27
0 -5 -8 -1 -17 10 -16 18 -27 20 -118 16 -55 -3 -104 -10 -110 -15 -7 -6 23
-8 88 -5 102 4 139 -6 62 -18 -28 -4 -43 -10 -39 -17 4 -7 -4 -8 -26 -3 -23 5
-30 4 -26 -4 9 -14 -19 -14 -45 -1 -14 8 -19 7 -20 -2 0 -7 -4 -3 -9 10 -5 12
-14 22 -20 22 -6 0 -8 -5 -5 -10 3 -6 -1 -13 -10 -16 -13 -6 -14 -9 -3 -16 14
-9 -73 -2 -132 12 -51 12 -172 11 -186 -1 -7 -6 -23 -8 -35 -4 -14 5 -19 4
-15 -4 4 -6 23 -11 42 -11 19 0 34 -4 34 -10 0 -6 -28 -10 -62 -10 -35 0 -75
-6 -89 -14 -16 -8 -32 -10 -40 -5 -8 5 -25 9 -39 9 -22 -1 -23 -2 -9 -13 9 -7
18 -21 20 -32 3 -16 15 -21 54 -26 l50 -5 -43 -8 c-23 -5 -45 -13 -48 -17 -6
-10 -57 -12 -67 -3 -9 9 16 44 30 44 7 0 13 5 13 10 0 13 -40 4 -95 -21 -50
-23 -79 -25 -51 -4 24 18 15 30 -12 16 -24 -13 -62 -3 -56 14 3 7 15 16 27 19
12 3 48 20 80 38 32 18 68 38 80 45 21 12 42 51 32 61 -3 3 -13 -2 -24 -12
-10 -9 -25 -16 -32 -14 -8 2 -13 -3 -11 -10 1 -8 -2 -11 -8 -7 -6 3 -8 10 -5
15 3 4 -1 10 -7 13 -17 5 -59 -23 -52 -34 3 -5 -4 -9 -15 -9 -11 0 -44 -24
-74 -55 -29 -30 -57 -55 -60 -55 -8 0 1 47 12 65 3 6 6 16 6 24 0 17 25 28 25
11 0 -6 5 -8 11 -4 6 3 9 15 6 25 -3 11 -1 19 3 19 5 0 35 23 67 50 66 58 138
95 203 105 25 4 53 16 63 26 10 11 26 19 35 19 10 0 27 7 38 15 29 22 52 19
26 -4 -41 -35 1 -42 66 -11 24 12 47 18 52 15 4 -3 39 6 77 19 105 38 139 41
203 20z m3760 -63 c0 -5 3 -23 6 -40 5 -24 3 -31 -9 -31 -9 0 -22 7 -31 15 -8
8 -26 19 -41 25 -32 12 -23 34 11 27 13 -2 24 0 24 4 0 5 9 9 20 9 11 0 20 -4
20 -9z m-2769 -28 c7 -20 7 -28 -3 -34 -16 -10 -25 -1 -33 34 -10 37 21 38 36
0z m2203 -15 c28 -39 17 -75 -18 -62 -28 11 -34 84 -7 84 5 0 17 -10 25 -22z
m86 -63 c0 -9 -9 -15 -25 -15 -31 0 -33 17 -2 23 12 2 23 5 25 6 1 0 2 -6 2
-14z m-2203 -20 c0 -8 -6 -15 -14 -15 -7 0 -13 7 -13 15 0 8 6 15 13 15 8 0
14 -7 14 -15z m-149 -16 c17 -27 3 -44 -22 -26 -11 8 -15 19 -10 30 8 22 16
22 32 -4z m-595 -40 l22 -20 -28 10 c-15 6 -33 10 -39 8 -6 -1 -13 4 -15 11
-8 20 36 14 60 -9z m-525 -73 c3 -3 -20 -6 -52 -6 -33 0 -55 4 -51 9 6 10 93
7 103 -3z m527 -4 c-3 -3 -11 0 -18 7 -9 10 -8 11 6 5 10 -3 15 -9 12 -12z
m50 -10 c10 -7 19 -32 12 -32 -2 0 -14 9 -27 20 -22 19 -9 30 15 12z m2659 0
c2 -4 1 -14 -3 -20 -10 -16 -41 -5 -41 14 0 15 35 20 44 6z m-2589 -12 c3 -5
-1 -10 -9 -10 -9 0 -16 5 -16 10 0 6 4 10 9 10 6 0 13 -4 16 -10z m340 0 c3
-5 1 -10 -4 -10 -6 0 -11 5 -11 10 0 6 2 10 4 10 3 0 8 -4 11 -10z m-1149 -37
c-12 -13 -96 -41 -96 -33 0 15 25 28 60 33 19 2 37 5 39 5 2 1 1 -1 -3 -5z
m4004 -40 c0 -7 -8 -13 -17 -13 -23 0 -53 29 -46 46 4 12 10 11 34 -3 16 -10
29 -23 29 -30z m-4250 -75 c0 -18 -2 -20 -9 -8 -6 8 -7 18 -5 22 9 14 14 9 14
-14z m-332 -38 c-7 -11 -16 -20 -20 -20 -13 0 -9 28 5 33 23 10 27 7 15 -13z
m3466 -33 c15 -23 -4 -72 -29 -72 -13 0 -22 10 -29 34 -8 28 -7 36 9 47 22 17
35 14 49 -9z m-2197 -13 c10 -14 37 -47 60 -73 25 -26 50 -67 59 -96 9 -27 24
-68 34 -90 10 -22 27 -62 38 -88 12 -26 26 -76 32 -110 15 -86 31 -140 45
-155 10 -11 14 -9 19 14 4 15 16 39 27 52 10 14 20 34 20 46 1 17 2 17 6 4 6
-25 28 -22 51 7 14 17 30 25 50 25 71 0 109 -115 114 -347 3 -112 2 -120 -22
-151 -43 -58 -115 -84 -195 -70 -19 3 -20 -4 -23 -147 -4 -155 3 -281 18 -304
6 -10 15 -11 36 -4 27 9 29 13 35 80 4 62 9 76 39 109 86 99 125 124 198 124
50 0 114 -45 142 -99 26 -52 28 -136 3 -150 -15 -9 -16 -12 -4 -20 10 -7 12
-24 7 -72 -6 -63 -5 -66 38 -137 38 -63 45 -84 51 -147 4 -41 5 -90 3 -110 -5
-42 -18 -36 226 -86 150 -31 159 -32 168 -15 24 42 46 55 77 46 19 -5 41 -4
59 2 16 7 51 8 84 4 45 -6 57 -11 62 -28 6 -24 0 -38 -15 -38 -6 0 -7 4 -4 10
3 5 0 7 -8 4 -8 -3 -17 -15 -20 -26 -6 -23 11 -40 76 -80 21 -13 58 -37 81
-54 23 -17 73 -48 111 -70 39 -21 92 -53 119 -70 43 -29 85 -37 71 -14 -3 5 2
13 11 18 14 8 15 14 6 42 -9 25 -8 39 3 67 9 21 19 32 26 27 8 -4 9 2 6 22
-14 73 -18 144 -8 144 6 0 8 6 5 14 -3 9 1 13 12 13 27 -3 37 50 14 73 -12 12
-15 22 -9 26 8 4 8 9 0 17 -7 7 -15 6 -26 -3 -13 -11 -18 -10 -30 6 -14 18
-14 18 -15 -2 0 -14 8 -24 21 -27 17 -5 19 -9 10 -26 -13 -23 -39 -18 -37 7 0
9 -5 16 -12 14 -7 -1 -15 6 -19 15 -10 29 -45 63 -65 63 -10 0 -27 9 -38 20
-11 11 -31 22 -44 26 -35 8 -49 29 -40 56 4 13 7 35 5 49 -3 35 19 52 53 39
27 -10 30 -14 40 -62 4 -17 18 -34 36 -43 57 -29 80 -16 105 62 9 26 22 59 29
73 7 14 19 49 26 79 12 51 56 130 90 159 8 7 53 31 100 53 99 47 138 48 221 3
97 -53 107 -78 64 -166 -21 -43 -24 -61 -19 -101 8 -57 -19 -127 -48 -127 -19
0 -24 -20 -9 -35 16 -19 34 -80 40 -139 7 -65 25 -83 41 -42 12 33 19 32 109
-4 78 -32 144 -38 200 -19 41 14 61 -1 61 -47 0 -19 5 -34 10 -34 6 0 10 5 10
12 0 20 32 48 57 48 20 0 23 -5 23 -40 0 -78 -82 -137 -178 -127 -26 2 -84 -1
-130 -6 -71 -9 -84 -8 -95 5 -12 16 -72 27 -180 33 -32 2 -64 9 -72 15 -20 17
-19 53 4 81 26 34 14 53 -37 57 -46 3 -79 29 -104 85 -9 19 -23 29 -47 33 -22
5 -36 3 -39 -4 -2 -6 -11 -8 -20 -5 -14 6 -15 4 -5 -9 7 -8 10 -18 6 -21 -3
-4 1 -9 10 -13 28 -10 34 -124 7 -124 -20 0 -80 -79 -80 -105 0 -9 31 -5 53 8
25 14 26 14 49 47 17 23 19 23 34 8 10 -9 20 -34 23 -55 6 -36 8 -38 45 -38
34 0 40 -4 55 -35 11 -24 24 -36 41 -38 75 -9 99 -36 101 -115 2 -59 -18 -102
-53 -113 -42 -13 -130 7 -180 41 -70 48 -114 61 -137 41 -15 -13 -24 -14 -46
-6 -15 6 -30 8 -33 6 -4 -5 51 -69 89 -103 13 -12 14 -20 5 -38 -9 -19 -16
-22 -39 -18 -39 8 -28 -16 30 -63 30 -24 41 -40 34 -47 -6 -6 -17 -1 -33 17
-26 31 -74 41 -83 18 -3 -8 3 -20 12 -28 14 -10 16 -15 6 -25 -11 -11 -13 -10
-13 2 0 11 -2 12 -9 0 -7 -11 -15 -11 -47 0 -22 8 -45 20 -52 26 -7 7 -21 18
-30 25 -10 7 -50 57 -91 110 -72 96 -74 97 -113 95 -22 -1 -43 -7 -45 -14 -6
-15 -128 -19 -137 -4 -3 4 -33 9 -68 9 -44 1 -69 6 -87 20 -14 10 -57 31 -94
46 -55 22 -74 25 -96 18 -16 -6 -49 -8 -74 -5 -33 4 -47 2 -47 -6 0 -7 -10
-11 -22 -9 -19 2 -22 -1 -20 -19 4 -32 -24 -30 -32 1 -3 14 -20 33 -36 43 -17
9 -30 25 -30 34 0 18 -113 139 -129 139 -5 0 -10 -18 -9 -40 0 -25 -6 -46 -17
-57 -17 -17 -18 -16 -13 17 9 60 -50 176 -126 249 -20 19 -36 41 -36 49 0 21
-47 110 -81 153 -20 26 -35 36 -46 32 -10 -4 -14 -2 -10 4 4 6 0 16 -8 23 -20
17 -20 -5 1 -106 32 -154 -21 -399 -94 -432 -36 -16 -71 -37 -85 -51 -12 -12
-16 -61 -5 -61 4 0 8 -5 8 -11 0 -6 -7 -9 -15 -6 -11 5 -12 1 -5 -18 8 -22 5
-26 -52 -54 -64 -32 -81 -33 -57 -4 12 15 12 16 -5 10 -14 -6 -16 -5 -8 5 5 7
12 24 14 38 2 18 9 24 23 23 18 -1 18 0 -4 16 -21 16 -22 19 -6 34 14 15 14
18 2 23 -19 7 -17 54 2 54 11 0 11 3 0 16 -7 9 -12 29 -11 45 3 26 1 29 -26
29 -23 0 -32 7 -45 33 -19 39 -37 169 -36 256 l1 63 70 69 c39 38 74 69 77 69
9 0 65 142 78 198 8 32 -12 27 -38 -10 -40 -59 -112 -118 -194 -159 -75 -38
-86 -41 -177 -43 -54 -1 -102 -7 -110 -14 -11 -9 -180 -26 -223 -23 -55 5 -82
15 -90 34 -6 12 -20 23 -32 25 -12 2 -24 10 -27 18 -7 19 21 64 40 64 23 0 16
13 -26 49 -52 44 -55 84 -9 124 17 15 35 27 40 27 4 0 24 11 44 24 22 15 58
27 93 32 31 4 93 17 136 30 95 28 216 32 263 9 39 -19 66 -11 57 19 -13 45
-94 109 -94 75 0 -8 -35 -9 -117 -5 -109 5 -117 3 -55 -10 35 -7 26 -22 -20
-35 -24 -6 -48 -15 -54 -20 -9 -7 -37 -7 -84 0 -3 1 2 6 10 11 13 9 13 11 0
20 -26 17 -60 11 -123 -21 -55 -28 -59 -29 -54 -10 6 26 -7 36 -22 17 -6 -7
-32 -21 -57 -31 -76 -29 -102 -66 -68 -99 8 -9 18 -31 21 -50 5 -32 4 -34 -16
-29 -29 7 -43 37 -40 83 2 22 0 42 -4 46 -4 4 -4 18 -1 30 5 21 3 24 -23 24
-16 0 -38 6 -49 14 -19 14 -74 11 -74 -4 0 -21 51 -118 64 -123 9 -4 16 -15
16 -26 0 -11 8 -25 18 -31 16 -11 16 -11 0 -6 -10 3 -18 1 -18 -4 0 -6 3 -10
8 -10 8 0 10 -56 1 -64 -3 -4 -14 12 -24 35 -20 42 -40 59 -74 59 -24 0 -28
25 -6 34 16 6 21 36 6 36 -5 0 -14 -7 -21 -15 -7 -9 -29 -15 -53 -15 -31 0
-48 7 -79 36 -22 19 -45 33 -51 31 -6 -2 -16 -23 -22 -48 -8 -33 -16 -45 -32
-47 -18 -3 -21 4 -28 63 -6 61 -5 68 16 86 12 10 26 19 31 19 11 0 10 47 -1
55 -12 7 -48 117 -55 170 -13 86 28 132 94 105 30 -12 39 -26 47 -72 6 -37
-10 -36 -54 2 -18 17 -43 30 -53 30 -17 0 -20 -7 -20 -45 0 -26 8 -57 19 -75
l19 -31 6 26 c4 14 11 23 17 20 5 -4 16 -1 24 5 20 17 47 -5 44 -34 -2 -12 5
-36 15 -55 14 -26 20 -31 27 -20 12 20 11 51 -5 117 -25 97 -57 335 -52 382 2
25 4 53 5 63 1 9 8 17 16 17 18 0 20 -26 3 -33 -7 -3 -3 -6 10 -6 17 -1 22 -6
20 -19 -2 -11 2 -25 9 -33 13 -16 21 -55 22 -106 1 -31 3 -33 38 -33 23 0 45
-7 59 -21 32 -30 108 -29 164 2 42 24 52 46 18 42 -10 -2 -18 4 -18 12 0 9 14
17 40 21 22 4 48 12 57 20 15 11 16 16 5 33 -11 18 -10 21 8 21 10 0 28 -10
40 -22 11 -12 21 -16 21 -10 1 7 2 17 3 22 0 6 6 14 13 18 18 11 0 84 -30 124
-40 52 -124 88 -207 88 -64 0 -82 21 -50 55 13 14 29 25 37 25 7 0 13 5 13 10
0 6 6 10 14 10 8 0 21 6 28 13 15 14 83 44 113 50 11 2 19 9 17 17 -5 21 15
67 45 105 30 38 43 44 43 20 0 -19 19 -19 44 0 13 10 33 13 60 9 30 -4 37 -3
26 5 -12 8 -12 13 -2 23 9 9 12 9 12 0 0 -7 6 -12 14 -12 8 0 16 -6 19 -14 9
-22 88 -30 134 -15 47 17 120 64 136 90 6 10 17 19 24 19 7 0 13 7 13 16 0 10
6 14 14 11 8 -3 22 5 32 19 24 31 49 31 71 -2z m-1295 -6 c-7 -7 -12 -8 -12
-2 0 14 12 26 19 19 2 -3 -1 -11 -7 -17z m2555 10 c6 -7 14 -30 17 -52 7 -38
7 -38 -20 -32 -46 12 -69 57 -42 84 15 15 33 15 45 0z m-2581 -116 c-9 -17
-21 -36 -28 -44 -13 -13 -32 -49 -42 -81 -3 -10 -10 -16 -14 -13 -5 3 5 34 22
68 18 35 40 83 50 108 18 42 20 43 23 18 2 -15 -3 -40 -11 -56z m4489 -76 c17
-6 36 -17 44 -25 13 -12 12 -15 -4 -28 -32 -23 -77 -11 -98 25 -20 34 -15 57
12 46 9 -3 30 -12 46 -18z m-435 -16 c0 -5 -4 -10 -10 -10 -5 0 -10 5 -10 10
0 6 5 10 10 10 6 0 10 -4 10 -10z m-1541 -14 c7 -8 36 -25 65 -37 46 -19 86
-58 86 -84 0 -3 -20 -3 -45 1 -30 4 -45 3 -45 -5 0 -6 -4 -11 -10 -11 -5 0
-10 7 -10 15 0 8 -4 15 -8 15 -4 0 -13 15 -20 33 l-13 32 -19 -24 c-11 -13
-20 -32 -20 -43 0 -28 -39 -90 -54 -85 -16 6 -10 69 13 124 10 27 22 56 25 66
7 21 39 22 55 3z m381 -36 c0 -5 -7 -10 -15 -10 -8 0 -15 5 -15 10 0 6 7 10
15 10 8 0 15 -4 15 -10z m1305 1 c-3 -5 -1 -12 4 -16 14 -8 2 -35 -15 -35 -8
0 -12 10 -11 30 1 17 8 30 15 30 7 0 11 -4 7 -9z m-4275 -31 c0 -5 -4 -10 -10
-10 -5 0 -10 5 -10 10 0 6 5 10 10 10 6 0 10 -4 10 -10z m-2240 -68 c0 -5 -7
-17 -15 -28 -14 -19 -14 -19 -15 2 0 11 3 24 7 27 9 10 23 9 23 -1z m2223 -7
c0 -6 -7 -11 -16 -13 -12 -3 -15 1 -11 13 7 17 25 17 27 0z m-1917 -40 c-6
-17 -36 -9 -36 9 0 7 5 17 12 24 9 9 14 9 21 -4 5 -8 6 -22 3 -29z m4794 -20
c0 -19 -5 -19 -24 1 -23 22 -20 37 4 24 11 -6 20 -17 20 -25z m-206 -1 c4 -10
1 -14 -6 -12 -15 5 -23 28 -10 28 5 0 13 -7 16 -16z m1701 -30 c12 -13 25 -21
28 -17 4 3 7 1 7 -4 0 -6 -19 -14 -41 -18 -36 -6 -45 -4 -66 17 -15 16 -22 30
-17 42 9 23 59 12 89 -20z m473 14 c-3 -7 -18 -19 -34 -27 -16 -8 -31 -17 -34
-21 -3 -4 -15 -9 -27 -12 -37 -10 -28 13 21 50 31 24 80 30 74 10z m-643 -67
c59 -13 48 -111 -13 -111 -56 1 -115 86 -75 109 20 11 42 12 88 2z m-2485 -22
c0 -4 -6 -12 -14 -18 -11 -9 -15 -7 -19 8 -3 15 0 19 14 18 11 -1 19 -4 19 -8z
m-3426 -27 c-5 -59 -5 -58 -14 -37 -13 30 -12 57 3 53 6 -3 12 -10 11 -16z
m4954 -24 c4 -20 -85 -111 -102 -105 -17 6 -7 47 20 90 20 31 30 38 52 35 16
-2 28 -10 30 -20z m-2629 -50 c8 -22 5 -24 -59 -35 -38 -6 -77 -16 -88 -22
-44 -24 -43 -4 2 43 30 32 39 36 85 36 44 0 53 -3 60 -22z m-719 2 c0 -18 -46
-33 -66 -22 -18 10 -17 11 6 21 33 13 60 13 60 1z m4068 -16 c4 -28 -22 -54
-48 -47 -23 6 -27 42 -8 61 19 19 53 10 56 -14z m-1642 -68 c-3 -10 0 -26 7
-36 18 -29 -6 -51 -43 -39 -33 12 -45 46 -25 69 8 9 15 20 15 23 0 4 8 16 17
27 18 20 18 20 26 -2 4 -13 6 -31 3 -42z m-4021 -47 c4 -56 13 -124 22 -151
10 -36 11 -54 4 -61 -6 -6 -11 -23 -11 -38 0 -40 -10 -59 -30 -59 -21 0 -38
56 -22 72 11 11 3 49 -18 89 -15 27 -15 86 -1 103 5 6 15 42 21 79 7 37 16 67
20 67 4 0 11 -46 15 -101z m328 -7 c-16 -26 -32 -25 -39 2 -4 16 -1 32 6 41
11 14 15 13 28 -6 11 -15 12 -27 5 -37z m2027 44 c0 -3 -4 -8 -10 -11 -5 -3
-10 -1 -10 4 0 6 5 11 10 11 6 0 10 -2 10 -4z m-2525 -76 c3 -5 1 -10 -4 -10
-6 0 -11 5 -11 10 0 6 2 10 4 10 3 0 8 -4 11 -10z m745 -130 c19 -119 18 -135
-7 -138 -24 -3 -26 3 -42 88 -5 30 -16 68 -24 84 -17 31 -13 56 9 56 8 0 14 6
14 12 0 7 8 4 19 -7 12 -12 23 -49 31 -95z m3764 94 c9 -4 16 -18 16 -33 0
-25 -3 -27 -44 -30 -42 -2 -44 0 -39 21 11 44 30 56 67 42z m-4674 -53 c0 -4
-11 -20 -25 -35 -14 -15 -25 -31 -25 -37 0 -5 -7 -9 -15 -9 -22 0 -18 34 5 55
11 10 20 14 20 9 0 -5 5 -1 11 9 10 18 29 23 29 8z m5475 -41 c20 -38 19 -66
-2 -74 -19 -8 -40 14 -50 51 -13 55 26 72 52 23z m-5297 -40 c10 0 42 -54 42
-70 0 -8 -9 -10 -24 -6 -14 3 -36 2 -50 -4 -21 -8 -27 -6 -36 10 -14 26 -12
57 4 63 7 3 16 20 21 39 l7 33 14 -32 c8 -18 18 -33 22 -33z m6566 -51 c-3 -5
-10 -7 -15 -3 -5 3 -7 10 -3 15 3 5 10 7 15 3 5 -3 7 -10 3 -15z m-2448 -26
c-11 -11 -19 6 -11 24 8 17 8 17 12 0 3 -10 2 -21 -1 -24z m-4386 12 c0 -3 -6
-20 -13 -38 -8 -18 -17 -48 -21 -68 -7 -40 -41 -83 -58 -73 -17 11 -1 75 30
113 16 20 31 44 35 54 6 15 27 25 27 12z m4878 -53 c4 -26 5 -25 -37 -11 -35
12 -40 25 -13 32 31 9 47 2 50 -21z m106 -1 c4 -5 25 -12 49 -16 75 -13 100
-37 51 -49 -27 -7 -94 12 -94 26 0 5 -12 5 -26 2 -15 -4 -25 -3 -22 2 3 5 8
17 11 27 7 18 22 23 31 8z m1861 -130 c8 -25 -12 -67 -39 -79 -17 -7 -27 -5
-45 9 -30 25 -23 50 19 71 46 22 57 22 65 -1z m-6472 -22 c42 -19 53 -56 49
-158 -2 -52 -13 -46 -36 19 -8 25 -22 63 -30 85 -15 41 -20 65 -11 65 2 0 15
-5 28 -11z m2674 -9 c-1 -13 -8 -20 -22 -20 -32 0 -38 12 -12 26 31 17 36 17
34 -6z m2327 -16 c17 -16 20 -27 10 -37 -10 -10 -44 17 -44 35 0 22 14 23 34
2z m241 -23 c3 -5 1 -13 -5 -16 -15 -9 -43 3 -35 15 8 13 32 13 40 1z m1043
-54 c3 -23 0 -27 -22 -27 -21 0 -26 5 -26 23 0 13 3 27 7 31 15 14 38 0 41
-27z m-5862 -42 c30 -46 -8 -90 -39 -44 -12 16 -12 25 -3 44 14 31 21 31 42 0z
m4729 -11 c41 -9 45 -12 38 -30 -10 -28 -82 16 -83 51 0 6 4 5 8 -2 4 -6 21
-15 37 -19z m-5105 -69 c0 -8 -2 -15 -4 -15 -2 0 -6 7 -10 15 -3 8 -1 15 4 15
6 0 10 -7 10 -15z m1432 -17 l5 -32 -18 23 c-23 28 -24 41 -5 41 8 0 16 -14
18 -32z m497 -39 c-13 -26 -49 -25 -49 1 0 24 30 42 47 28 9 -7 10 -16 2 -29z
m2814 -11 c-20 -22 -56 -20 -61 4 -2 12 5 18 25 20 45 6 57 -1 36 -24z m297
-13 c0 -8 -4 -15 -8 -17 -5 -1 -12 -18 -15 -36 -6 -29 -4 -34 21 -44 23 -9 24
-12 8 -16 -10 -2 -23 1 -29 7 -6 6 -22 11 -35 11 -22 0 -24 3 -17 36 9 51 44
97 62 83 7 -6 13 -17 13 -24z m-4665 -5 c16 -18 17 -27 6 -97 -14 -89 -31
-250 -32 -305 -1 -21 -7 -45 -14 -55 -11 -15 -15 -15 -29 -4 -9 7 -16 24 -16
38 0 13 -5 33 -10 43 -8 14 -6 21 6 28 12 7 18 41 28 151 7 78 11 153 8 167
-10 52 20 71 53 34z m5886 -111 c-9 -22 -10 -22 -10 -3 -1 11 2 24 6 27 12 12
14 0 4 -24z m-4441 3 c0 -13 -12 -22 -22 -16 -10 6 -1 24 13 24 5 0 9 -4 9 -8z
m4440 -54 c0 -7 12 -29 26 -49 31 -45 28 -70 -9 -80 -21 -6 -38 -2 -63 13 -35
21 -41 32 -24 43 6 3 10 19 10 34 0 15 5 32 12 39 16 16 48 16 48 0z m-3856
-41 c7 -19 19 -66 26 -105 7 -40 16 -72 19 -72 4 0 15 -13 24 -29 10 -17 26
-33 37 -36 11 -4 20 -13 20 -20 0 -8 14 -22 31 -30 23 -12 29 -21 24 -36 -5
-14 -2 -19 12 -19 17 -1 17 -2 -1 -15 -17 -13 -18 -15 -3 -15 9 0 17 -7 17
-15 0 -8 7 -15 16 -15 14 0 14 -1 0 -16 -9 -8 -16 -28 -16 -44 0 -20 -6 -29
-22 -34 -35 -9 -70 -7 -63 3 3 5 0 13 -7 18 -23 13 -38 12 -38 -5 0 -80 -54
185 -80 393 -5 39 -12 82 -16 98 -9 38 3 34 20 -6z m-117 -24 c-3 -10 -5 -4
-5 12 0 17 2 24 5 18 2 -7 2 -21 0 -30z m2295 7 c5 -5 5 -8 2 -5 -4 2 -13 -3
-21 -11 -14 -13 -18 -13 -34 5 -11 11 -19 23 -19 27 0 9 63 -4 72 -16z m1561
-21 c22 -12 62 -49 56 -52 -2 -1 -17 -11 -34 -23 -48 -34 -95 -55 -105 -49
-18 11 -11 81 11 109 22 29 39 32 72 15z m-1772 -77 c54 -21 38 -80 -18 -69
-99 19 -132 34 -133 59 0 22 103 29 151 10z m-161 -57 c-18 -21 -46 -28 -70
-15 -34 18 -22 30 31 30 44 0 50 -2 39 -15z m646 -30 c2 -21 -3 -25 -27 -25
-22 0 -29 5 -29 20 0 20 27 41 44 34 6 -2 12 -15 12 -29z m-2502 19 c9 -3 16
-12 16 -20 0 -19 -40 -94 -50 -94 -16 0 -105 -83 -132 -123 -43 -62 -33 -65
17 -4 46 57 105 106 105 88 0 -6 -18 -29 -40 -53 -22 -24 -57 -70 -77 -103
-20 -33 -45 -71 -55 -84 -10 -13 -18 -32 -18 -42 0 -11 -4 -19 -10 -19 -5 0
-10 9 -10 21 0 17 -4 19 -22 13 -13 -4 -34 -8 -48 -9 -29 -2 -40 -32 -16 -41
25 -10 19 -27 -6 -19 -13 3 -48 8 -78 10 -42 3 -61 0 -79 -14 -26 -20 -20 -45
8 -36 24 7 72 -11 51 -19 -70 -26 -160 -26 -160 0 0 17 -27 18 -33 2 -4 -10
-7 -10 -14 -1 -12 17 -55 21 -60 6 -3 -8 5 -13 21 -13 15 0 29 -7 33 -16 4
-12 14 -14 39 -9 19 3 34 2 34 -4 0 -11 -54 -31 -84 -31 -12 0 -31 -7 -43 -15
-14 -10 -24 -11 -28 -5 -3 5 4 15 17 21 13 6 29 19 36 30 11 17 9 19 -17 19
-16 0 -32 6 -35 13 -3 6 -3 1 0 -12 5 -17 3 -21 -6 -16 -8 5 -18 1 -26 -10 -7
-10 -20 -15 -28 -12 -8 3 -32 -2 -53 -12 -21 -10 -65 -24 -98 -31 -33 -8 -67
-19 -75 -25 -8 -7 -41 -25 -73 -41 -57 -27 -104 -74 -89 -88 4 -4 -2 -14 -13
-22 -17 -13 -56 -47 -174 -152 -26 -23 -26 -23 -35 -3 -5 12 -13 21 -18 21 -4
0 -8 7 -8 15 0 21 -27 30 -45 15 -19 -15 -19 -10 -1 24 15 30 131 131 226 197
36 25 132 94 215 153 172 124 173 124 285 161 287 92 440 151 593 226 127 62
132 67 112 89 -30 33 -19 60 32 79 1 1 8 -2 17 -5z m-903 -137 c9 -7 16 -26
16 -44 l0 -31 -30 29 c-39 39 -27 78 14 46z m-1117 -262 c16 -79 23 -161 15
-170 -5 -5 -9 -17 -9 -27 0 -20 -25 -24 -36 -6 -7 11 -16 132 -16 218 0 25 5
77 11 115 5 39 11 77 12 85 1 8 6 -30 10 -85 4 -55 10 -113 13 -130z m5374
158 c2 -16 -4 -22 -30 -26 -49 -7 -62 8 -36 44 20 26 24 28 42 15 12 -7 22
-22 24 -33z m-4196 -5 c-6 -23 -16 -30 -36 -22 -28 11 -19 39 13 40 23 1 27
-3 23 -18z m761 -18 c-5 -19 -23 -29 -23 -12 0 7 20 32 26 32 1 0 0 -9 -3 -20z
m3401 -175 c29 -148 29 -168 6 -198 -24 -31 -60 -36 -60 -9 -1 37 -20 200 -26
216 -3 9 -14 16 -23 16 -14 1 -14 2 2 14 9 7 17 16 17 20 0 4 7 23 15 44 l16
37 19 -30 c10 -17 25 -66 34 -110z m-3423 92 c-10 -9 -11 -8 -5 6 3 10 9 15
12 12 3 -3 0 -11 -7 -18z m-763 -23 c3 -28 3 -28 -12 -9 -19 24 -21 48 -3 43
6 -3 13 -18 15 -34z m1119 10 c-3 -3 -12 -4 -19 -1 -8 3 -5 6 6 6 11 1 17 -2
13 -5z m1490 -88 c-3 -8 -1 -16 5 -18 6 -2 8 -10 4 -16 -5 -9 -13 -6 -26 10
-20 25 -18 38 7 38 9 0 13 -6 10 -14z m-1317 -86 c-20 -13 -40 -13 -40 0 0 6
12 10 28 10 21 0 24 -2 12 -10z m43 -21 c-6 -6 -21 -9 -34 -6 -22 4 -22 4 4 6
15 0 27 6 27 13 0 6 3 8 7 5 4 -4 2 -12 -4 -18z m-2386 -6 c25 -22 35 -54 24
-72 -7 -10 -15 -4 -36 27 -15 22 -24 46 -20 51 8 14 8 14 32 -6z m5067 -61
c-15 -24 -38 -21 -42 5 -2 14 3 23 15 25 26 6 40 -9 27 -30z m-37 -38 c-9 -9
-28 6 -21 18 4 6 10 6 17 -1 6 -6 8 -13 4 -17z m-4610 -46 c6 -7 13 -31 16
-53 4 -22 4 -34 1 -27 -8 18 -35 15 -69 -8 -32 -21 -95 -27 -95 -10 0 21 30
69 56 89 30 23 76 28 91 9z m4883 -99 c0 -28 -4 -39 -12 -37 -21 7 -18 78 3
78 5 0 9 -18 9 -41z m523 -271 c26 -20 32 -71 12 -92 -17 -16 -19 -16 -39 5
-30 32 -56 72 -56 87 0 7 13 12 33 12 18 0 41 -6 50 -12z m-5683 -51 c0 -13
-33 -67 -41 -67 -6 0 -8 4 -5 9 3 4 10 20 15 35 6 14 15 26 21 26 5 0 10 -2
10 -3z m5162 -39 c-9 -9 -15 -9 -24 0 -10 10 -10 15 2 22 20 12 38 -6 22 -22z
m-2502 2 c0 -5 -5 -10 -11 -10 -5 0 -7 5 -4 10 3 6 8 10 11 10 2 0 4 -4 4 -10z
m2236 -42 c-1 -41 -32 -51 -45 -16 -10 27 3 48 29 48 13 0 17 -8 16 -32z m-56
-48 c0 -13 -1 -13 -10 0 -5 8 -10 22 -10 30 0 13 1 13 10 0 5 -8 10 -22 10
-30z m-5106 -82 c13 -63 6 -102 -14 -82 -10 10 -20 110 -12 118 10 10 20 -4
26 -36z m6161 -21 c24 -18 11 -41 -16 -27 -10 6 -19 17 -19 25 0 19 11 19 35
2z m-6852 -151 c-7 -42 -43 -60 -38 -19 1 13 7 29 14 36 6 6 11 22 12 37 0 24
1 24 9 3 5 -12 6 -37 3 -57z m152 54 c4 -6 1 -18 -6 -26 -10 -13 -14 -12 -30
2 -10 9 -16 21 -13 25 7 12 41 11 49 -1z m3125 -45 c0 -8 -4 -15 -9 -15 -13 0
-22 16 -14 24 11 11 23 6 23 -9z m10 -105 c0 -5 -2 -10 -4 -10 -3 0 -8 5 -11
10 -3 6 -1 10 4 10 6 0 11 -4 11 -10z m2675 -288 c-5 -14 -7 -14 -15 -2 -6 8
-10 29 -9 45 l0 30 15 -28 c9 -16 13 -36 9 -45z m61 -200 c-18 -17 -76 88 -76
137 1 20 10 8 41 -53 22 -43 38 -81 35 -84z m-1675 98 c55 -25 43 -25 -46 -1
-60 17 -65 19 -34 20 20 1 56 -8 80 -19z m-151 -5 c-46 -18 -61 -18 -30 0 14
8 34 14 45 14 13 0 8 -5 -15 -14z m177 -27 c11 -2 19 -6 16 -11 -2 -4 4 -10
13 -14 25 -9 69 -61 99 -116 34 -61 28 -80 -9 -30 -16 21 -25 29 -21 18 42
-109 41 -96 12 -157 -31 -65 -61 -88 -117 -88 -33 0 -48 7 -85 41 -45 42 -58
71 -65 154 -2 22 -5 16 -9 -20 -4 -35 -10 -50 -21 -50 -12 0 -15 15 -15 78 0
42 -3 77 -7 77 -14 0 -30 -42 -26 -65 4 -16 1 -22 -9 -18 -7 3 -13 -2 -13 -11
0 -21 -16 -21 -24 0 -24 62 22 157 99 206 29 18 71 19 182 6z m2440 -30 c43
-47 60 -118 28 -118 -8 0 -15 -4 -15 -10 0 -23 -20 -7 -44 36 -47 85 -24 152
31 92z m-173 -44 c9 -22 -1 -34 -30 -34 -26 0 -32 18 -12 38 17 17 35 15 42
-4z m-554 -108 c0 -13 -38 23 -63 59 -17 26 -15 25 21 -10 23 -21 42 -43 42
-49z m-5039 64 c34 -18 20 -28 -23 -17 -34 8 -38 12 -22 18 10 4 20 8 22 8 2
1 12 -4 23 -9z m836 -46 c-3 -3 -12 -4 -19 -1 -8 3 -5 6 6 6 11 1 17 -2 13 -5z
m-38 -8 c-11 -9 -90 -16 -84 -6 3 5 25 10 47 10 23 0 39 -2 37 -4z m-1945 -12
c9 -3 16 -13 16 -21 0 -20 -34 -12 -38 10 -4 19 -1 20 22 11z m2293 -14 c-3
-11 -1 -20 4 -20 5 0 9 9 9 20 0 14 7 20 21 20 19 0 20 -4 14 -42 -7 -38 -6
-41 9 -29 9 7 14 16 12 20 -2 3 0 16 4 27 7 17 15 20 34 17 28 -6 32 -13 16
-29 -6 -6 -6 -15 0 -24 8 -12 10 -11 10 6 0 26 25 49 41 38 7 -4 27 -9 43 -10
46 -3 107 -13 117 -20 5 -3 10 -20 10 -37 l2 -32 4 30 c5 34 17 45 44 38 16
-4 19 -15 19 -58 0 -38 -4 -55 -15 -59 -23 -8 -45 4 -45 25 0 12 -7 19 -18 19
-13 0 -26 -20 -47 -76 -16 -41 -32 -77 -36 -80 -20 -12 -16 21 11 86 33 81 34
84 20 75 -6 -4 -10 7 -10 24 0 17 -4 31 -10 31 -5 0 -10 -18 -10 -40 0 -30 -4
-40 -16 -40 -10 0 -14 6 -10 15 3 9 0 15 -9 15 -10 0 -15 -10 -15 -27 0 -34
-48 -135 -60 -128 -6 4 -10 -6 -11 -22 l-1 -28 -13 30 -14 30 -1 -42 c0 -50
-24 -68 -75 -59 -38 7 -45 20 -45 82 0 60 28 89 76 79 l35 -6 -6 33 c-3 18 -7
43 -8 56 -1 24 -12 29 -20 9 -4 -11 -40 -13 -120 -8 -8 1 1 87 10 104 2 4 16
7 30 7 20 0 24 -4 20 -20z m4448 0 c10 -30 -4 -79 -26 -93 -26 -16 -24 -27 6
-27 14 0 28 -7 31 -15 4 -9 19 -15 35 -15 22 0 29 -5 29 -20 0 -11 -4 -28 -9
-38 -18 -33 -41 -90 -41 -100 0 -5 -7 -12 -15 -16 -8 -3 -15 -2 -15 2 0 14
-159 20 -168 6 -4 -6 -16 -10 -28 -10 -18 0 -19 3 -10 39 8 29 7 43 -3 59 -10
16 -10 23 -2 26 6 2 11 19 11 38 0 24 4 32 14 28 7 -3 16 2 20 11 3 9 12 15
19 13 7 -2 30 6 50 17 34 18 37 22 31 52 -7 39 8 63 42 63 14 0 25 -8 29 -20z
m-3375 -10 c0 -5 -4 -10 -10 -10 -5 0 -10 5 -10 10 0 6 5 10 10 10 6 0 10 -4
10 -10z m2872 -20 c16 -16 26 -30 21 -30 -5 0 -22 14 -38 30 -16 17 -25 30
-21 30 4 0 21 -13 38 -30z m680 -22 c50 -19 52 -22 32 -53 -19 -28 -31 -29
-126 -4 -34 9 -38 13 -38 43 0 18 2 35 5 38 7 7 82 -7 127 -24z m-3547 12 c3
-5 -3 -10 -14 -10 -12 0 -21 5 -21 10 0 6 6 10 14 10 8 0 18 -4 21 -10z m3111
-30 c42 -27 45 -30 19 -25 -16 4 -37 9 -45 12 -8 3 -32 5 -52 4 -35 -2 -38 0
-38 25 0 25 2 26 33 21 18 -3 56 -19 83 -37z m-185 7 c-10 -9 -11 -8 -5 6 3
10 9 15 12 12 3 -3 0 -11 -7 -18z m-6281 -2 c0 -8 -7 -15 -15 -15 -8 0 -15 7
-15 15 0 8 7 15 15 15 8 0 15 -7 15 -15z m3345 -5 c3 -5 -1 -10 -9 -10 -9 0
-16 5 -16 10 0 6 4 10 9 10 6 0 13 -4 16 -10z m-1360 -20 c3 -5 1 -10 -4 -10
-6 0 -11 5 -11 10 0 6 2 10 4 10 3 0 8 -4 11 -10z m-1887 -13 c34 2 62 -1 62
-6 0 -6 9 -12 19 -16 11 -3 24 -20 30 -38 10 -26 9 -34 -5 -44 -20 -15 -12
-29 21 -35 17 -4 29 0 35 11 9 14 11 14 25 -3 12 -17 21 -68 16 -98 0 -5 4 -8
9 -8 6 0 10 4 10 8 0 12 46 32 54 25 3 -4 6 -21 6 -39 0 -32 -13 -44 -50 -44
-23 0 -34 -28 -19 -47 9 -10 9 -17 1 -25 -15 -15 -22 -7 -28 34 -7 50 -13 61
-29 54 -10 -4 -15 1 -15 15 0 22 -22 49 -39 49 -6 0 -17 12 -25 28 -8 15 -15
22 -16 16 0 -7 -12 -15 -27 -19 -15 -3 -30 -10 -33 -14 -3 -4 -40 -3 -82 3
-63 8 -79 14 -89 32 -13 26 -4 48 18 39 17 -6 43 24 55 63 5 18 2 25 -18 32
-29 11 -32 24 -4 17 13 -3 20 0 20 10 0 11 5 13 18 7 9 -5 45 -8 80 -7z m3247
3 c3 -5 -3 -10 -15 -10 -12 0 -18 5 -15 10 3 6 10 10 15 10 5 0 12 -4 15 -10z
m-8 -36 c-3 -3 -12 -4 -19 -1 -8 3 -5 6 6 6 11 1 17 -2 13 -5z m-3397 -39 c0
-7 -10 -15 -22 -18 -27 -8 -28 -7 -17 20 9 24 39 22 39 -2z m455 15 c3 -5 19
-10 36 -10 54 0 29 -23 -49 -45 -12 -4 -32 -16 -43 -28 l-20 -21 3 32 c1 17 6
32 10 32 5 0 13 11 18 25 10 25 34 33 45 15z m2110 -92 c8 -78 -1 -98 -45 -98
-67 0 -77 24 -30 70 17 16 30 38 30 49 0 11 5 23 10 26 6 4 8 11 5 16 -4 5 -3
14 1 20 11 19 22 -10 29 -83z m825 82 c0 -5 -7 -10 -15 -10 -8 0 -15 5 -15 10
0 6 7 10 15 10 8 0 15 -4 15 -10z m3710 0 c0 -24 -34 -69 -52 -70 -10 0 -11
64 -1 73 10 11 53 8 53 -3z m-6200 -14 c0 -20 -42 -48 -53 -37 -11 11 1 34 14
26 5 -4 9 1 9 9 0 9 7 16 15 16 8 0 15 -6 15 -14z m1410 -60 c0 -41 -5 -78
-10 -81 -6 -4 -31 -8 -56 -11 l-45 -4 3 77 3 78 35 6 c73 13 70 16 70 -65z
m1070 44 c0 -5 -4 -10 -10 -10 -5 0 -10 5 -10 10 0 6 5 10 10 10 6 0 10 -4 10
-10z m-702 -26 c25 -17 29 -42 7 -50 -11 -5 -12 -10 -3 -23 6 -10 8 -30 4 -44
-5 -22 -12 -27 -37 -27 -17 0 -39 5 -50 10 -22 12 -25 48 -5 56 8 3 12 12 9
20 -8 22 17 74 36 74 9 0 27 -7 39 -16z m129 -18 c12 -11 -8 -36 -29 -37 l-23
0 23 -9 c27 -12 29 -40 2 -40 -11 0 -20 -4 -20 -10 0 -5 9 -10 20 -10 15 0 20
-7 20 -26 0 -24 -3 -26 -31 -20 -17 3 -40 6 -51 6 -19 0 -20 5 -13 73 4 39 10
76 12 81 6 8 80 2 90 -8z m-1832 -23 c-5 -10 -13 -44 -19 -76 -11 -55 -12 -57
-31 -43 -11 9 -30 16 -42 16 -27 0 -29 12 -8 30 10 8 12 17 7 22 -18 18 0 45
36 55 57 16 65 15 57 -4z m-455 -27 c0 -17 -27 -29 -35 -16 -4 6 -3 15 0 20 9
15 35 12 35 -4z m6409 -30 c9 -11 4 -15 -29 -24 -36 -9 -40 -8 -40 8 0 11 9
20 23 23 12 2 25 5 28 6 4 0 12 -5 18 -13z m-6179 -109 c0 -4 -11 0 -25 10
-13 10 -25 24 -25 32 0 8 9 4 25 -10 13 -13 25 -28 25 -32z m5870 23 c0 -13
-37 -13 -45 0 -3 6 -3 15 0 20 7 12 45 -5 45 -20z m-6305 11 c3 -5 1 -12 -5
-16 -5 -3 -10 1 -10 9 0 18 6 21 15 7z m6713 -12 c9 -13 20 -19 32 -16 20 5
48 -18 36 -30 -4 -4 -26 -15 -50 -23 -45 -18 -72 -13 -95 14 -12 14 -11 19 4
30 10 7 15 18 11 24 -3 6 3 12 16 15 13 2 25 5 28 6 3 0 11 -8 18 -20z m-222
-26 c33 -16 37 -16 48 -2 8 12 17 14 36 7 l24 -9 -29 -24 c-28 -21 -31 -22
-47 -8 -16 15 -20 15 -38 -2 -18 -16 -20 -16 -20 -2 0 10 -6 14 -14 11 -18 -7
-28 9 -20 30 8 20 15 20 60 -1z m-1495 -50 c-12 -20 -14 -14 -5 12 4 9 9 14
11 11 3 -2 0 -13 -6 -23z m-4509 -5 c0 -13 1 -29 1 -36 -1 -7 11 -21 25 -30
26 -17 72 -60 72 -67 0 -2 -18 6 -40 16 -22 11 -54 22 -70 26 -41 8 -44 16
-24 68 18 49 33 58 36 23z m4485 -50 c-3 -8 -6 -5 -6 6 -1 11 2 17 5 13 3 -3
4 -12 1 -19z m6 -85 c20 -41 16 -58 -15 -61 -18 -2 -25 -8 -22 -17 3 -7 1 -16
-5 -20 -6 -3 -11 0 -11 8 0 18 30 117 35 117 3 0 11 -12 18 -27z m1427 -62 c0
-15 -16 -22 -35 -15 -13 5 -14 8 -3 15 18 12 38 11 38 0z m41 -34 c-10 -9 -11
-8 -5 6 3 10 9 15 12 12 3 -3 0 -11 -7 -18z m-6131 -73 c11 -12 11 -18 -1 -29
-20 -20 -43 -4 -34 24 8 25 18 27 35 5z m6094 -90 c4 -11 0 -15 -16 -12 -12 2
-23 9 -26 16 -6 18 35 15 42 -4z m-6051 -91 c-7 -2 -19 -2 -25 0 -7 3 -2 5 12
5 14 0 19 -2 13 -5z m6100 -64 c5 -4 6 -12 2 -19 -10 -16 -25 6 -24 35 0 14 2
16 6 5 3 -8 10 -18 16 -21z m-6049 -38 c-10 -17 -23 -27 -31 -24 -11 4 -9 11
8 29 31 33 44 30 23 -5z m-705 -10 c31 -20 -14 -40 -53 -25 -13 5 -14 9 -5 20
13 16 37 18 58 5z m5771 -64 c0 -7 -10 -23 -21 -37 l-20 -25 11 24 c10 20 10
23 -3 18 -10 -4 -13 0 -10 12 5 19 43 26 43 8z"/>
<path d="M3403 5933 c-24 -2 -43 -8 -43 -13 0 -10 81 -1 95 11 5 6 5 8 0 7 -6
-1 -29 -3 -52 -5z"/>
<path d="M3438 5898 c-30 -10 -38 -28 -13 -28 19 0 85 27 85 34 0 9 -42 6 -72
-6z"/>
<path d="M3273 5863 c9 -2 25 -2 35 0 9 3 1 5 -18 5 -19 0 -27 -2 -17 -5z"/>
<path d="M2968 5813 c6 -2 18 -2 25 0 6 3 1 5 -13 5 -14 0 -19 -2 -12 -5z"/>
<path d="M3465 5809 c-16 -5 -45 -7 -64 -5 -18 1 -60 -3 -93 -11 -63 -14 -106
-11 -78 7 24 15 -70 0 -142 -22 -67 -20 -80 -31 -55 -42 6 -3 -1 -4 -16 -2
-17 2 -26 -1 -24 -8 2 -6 17 -10 33 -9 36 2 109 11 109 13 0 1 22 3 50 6 27 2
54 10 60 17 7 10 51 18 144 26 192 16 234 15 263 -8 15 -12 29 -16 37 -11 9 5
10 10 2 14 -6 4 -11 4 -12 -1 0 -4 -4 0 -8 11 -6 15 -20 19 -74 21 -36 2 -74
6 -84 8 -10 3 -31 1 -48 -4z"/>
<path d="M3266 5741 c-11 -16 23 -33 51 -26 27 6 27 7 9 21 -22 16 -52 18 -60
5z"/>
<path d="M2903 5733 c-16 -6 -17 -46 -1 -41 6 2 12 14 13 26 1 12 1 22 1 21
-1 0 -7 -3 -13 -6z"/>
<path d="M2930 5714 c0 -14 3 -14 15 -4 8 7 15 14 15 16 0 2 -7 4 -15 4 -8 0
-15 -7 -15 -16z"/>
<path d="M3315 5680 c28 -12 57 -12 50 0 -3 6 -21 10 -38 9 -27 0 -29 -2 -12
-9z"/>
<path d="M2790 5610 c-12 -8 -11 -10 8 -10 12 0 22 5 22 10 0 13 -11 13 -30 0z"/>
<path d="M4133 5523 c-10 -32 -9 -41 4 -55 22 -24 28 -23 30 8 0 14 6 31 12
37 16 16 27 -22 12 -44 -9 -15 -8 -24 5 -44 18 -28 34 -33 34 -10 0 8 -4 15
-9 15 -5 0 -8 15 -5 33 5 38 -13 87 -31 87 -8 0 -19 2 -27 5 -8 3 -17 -8 -25
-32z"/>
<path d="M4087 5486 c-6 -15 1 -26 15 -26 11 0 10 27 -1 34 -5 3 -11 0 -14 -8z"/>
<path d="M4176 5401 c-9 -14 18 -31 33 -22 11 7 9 11 -7 20 -12 6 -23 7 -26 2z"/>
<path d="M4242 5340 c7 -11 21 -20 32 -20 18 0 19 1 1 20 -10 11 -24 20 -32
20 -11 0 -11 -4 -1 -20z"/>
<path d="M4190 5315 c0 -3 4 -13 9 -23 5 -9 12 -24 16 -32 3 -8 13 -26 21 -40
15 -25 15 -24 11 18 -3 24 -13 52 -23 63 -16 18 -34 25 -34 14z"/>
<path d="M3596 5052 c-196 -56 -226 -70 -226 -102 0 -12 -8 -20 -22 -22 -20
-3 -23 -8 -20 -43 2 -22 10 -45 18 -51 8 -6 14 -17 14 -23 0 -23 43 -50 62
-40 10 5 18 6 18 2 0 -4 5 0 11 10 16 27 30 20 18 -10 -13 -34 -3 -41 49 -35
36 3 40 6 27 16 -15 11 -15 13 -1 25 12 10 17 9 28 -8 18 -29 57 -27 133 9 35
17 74 30 87 30 13 0 29 4 37 9 52 33 -213 50 -294 19 -22 -8 -46 -13 -54 -10
-8 3 -20 -3 -28 -14 -17 -23 -17 -14 1 20 19 37 67 81 115 105 42 22 81 27 81
12 0 -5 15 -12 33 -16 17 -4 51 -14 75 -22 23 -9 45 -13 49 -10 8 9 -26 47
-42 47 -7 0 -18 7 -25 15 -7 8 -23 15 -35 15 -21 0 -22 2 -12 25 7 15 20 25
33 25 12 0 27 6 33 14 10 12 9 17 -6 24 -26 14 -65 10 -157 -16z"/>
<path d="M4252 4838 l-21 -33 42 -43 42 -43 3 28 c5 34 -13 97 -32 112 -11 9
-18 5 -34 -21z"/>
<path d="M3620 4720 c-21 -7 -17 -8 20 -8 25 0 54 3 65 8 27 11 -49 11 -85 0z"/>
<path d="M4187 4658 c-7 -53 3 -65 48 -60 34 4 45 15 25 27 -5 3 -10 15 -10
25 0 17 -34 50 -51 50 -3 0 -9 -19 -12 -42z"/>
<path d="M3375 4374 c-31 -9 -68 -12 -97 -8 -36 4 -51 2 -63 -10 -9 -8 -25
-22 -37 -30 -20 -14 -20 -16 -4 -41 13 -20 24 -26 42 -22 16 3 28 -1 34 -12 9
-15 11 -14 20 2 8 11 23 17 49 17 24 0 49 9 71 25 19 14 45 25 59 25 33 0 73
21 79 40 3 8 1 12 -3 8 -4 -4 -17 -1 -29 7 -25 18 -55 18 -121 -1z"/>
<path d="M3434 3995 c-37 -21 -44 -21 -100 -10 -68 14 -94 10 -67 -11 11 -8
13 -13 6 -14 -7 0 -13 -6 -13 -14 0 -8 -7 -22 -16 -31 -14 -13 -15 -21 -5 -41
9 -21 16 -24 39 -20 15 3 60 10 101 16 40 6 77 13 81 15 5 3 32 10 61 15 49
10 78 30 79 58 0 6 -9 12 -20 12 -14 0 -18 5 -13 17 5 14 1 15 -28 10 -19 -3
-43 -8 -54 -12 -16 -6 -15 -3 5 14 23 19 23 20 5 20 -11 -1 -38 -11 -61 -24z"/>
<path d="M3240 3820 c0 -5 5 -10 10 -10 6 0 10 5 10 10 0 6 -4 10 -10 10 -5 0
-10 -4 -10 -10z"/>
<path d="M5180 3340 c0 -5 15 -10 33 -10 24 0 28 3 17 10 -20 13 -50 13 -50 0z"/>
<path d="M4500 3330 c0 -6 15 -17 33 -25 18 -7 57 -30 86 -49 29 -20 58 -36
63 -36 14 0 -9 27 -37 43 -96 53 -145 76 -145 67z"/>
<path d="M3265 3140 c-3 -5 -1 -10 4 -10 6 0 11 5 11 10 0 6 -2 10 -4 10 -3 0
-8 -4 -11 -10z"/>
<path d="M2835 3129 c-4 -6 -5 -12 -2 -15 2 -3 7 2 10 11 7 17 1 20 -8 4z"/>
<path d="M4594 1401 c4 -5 -3 -11 -14 -13 -43 -6 -18 -23 42 -28 50 -4 73 -12
110 -38 62 -43 51 -19 -15 34 -47 38 -139 71 -123 45z"/>
<path d="M4602 1300 c-45 -28 -47 -40 -3 -18 33 16 45 18 80 8 39 -10 91 -61
91 -88 0 -7 5 -12 10 -12 15 0 12 11 -10 47 -38 64 -118 93 -168 63z"/>
<path d="M4801 1154 c0 -11 3 -14 6 -6 3 7 2 16 -1 19 -3 4 -6 -2 -5 -13z"/>
<path d="M2510 1175 c-10 -12 -10 -15 4 -15 9 0 16 7 16 15 0 8 -2 15 -4 15
-2 0 -9 -7 -16 -15z"/>
<path d="M2705 1174 c-18 -13 -18 -14 8 -14 15 0 27 4 27 9 0 17 -15 19 -35 5z"/>
<path d="M2629 1069 c9 -45 17 -72 19 -60 2 11 8 21 13 21 7 0 39 62 39 76 0
2 -9 4 -20 4 -10 0 -24 9 -30 20 -6 11 -17 20 -24 20 -10 0 -9 -16 3 -81z"/>
<path d="M2680 1129 c0 -5 5 -7 10 -4 6 3 10 8 10 11 0 2 -4 4 -10 4 -5 0 -10
-5 -10 -11z"/>
<path d="M2563 965 c0 -22 2 -30 4 -17 2 12 2 30 0 40 -3 9 -5 -1 -4 -23z"/>
<path d="M2691 934 c0 -11 3 -14 6 -6 3 7 2 16 -1 19 -3 4 -6 -2 -5 -13z"/>
<path d="M1098 913 c7 -3 16 -2 19 1 4 3 -2 6 -13 5 -11 0 -14 -3 -6 -6z"/>
<path d="M6646 7263 c26 -25 37 -28 94 -28 57 0 66 3 75 22 5 12 16 24 25 27
8 2 -39 4 -104 5 l-119 1 29 -27z"/>
<path d="M6873 7279 c11 -7 23 -7 35 0 14 9 11 10 -18 10 -29 0 -32 -1 -17
-10z"/>
<path d="M7092 3113 c2 -10 22 -28 46 -41 37 -21 43 -22 48 -7 10 24 -34 65
-68 65 -23 0 -29 -4 -26 -17z"/>
<path d="M6665 2010 c3 -5 8 -10 11 -10 2 0 4 5 4 10 0 6 -5 10 -11 10 -5 0
-7 -4 -4 -10z"/>
<path d="M6531 1990 c-13 -11 -19 -20 -15 -20 5 0 2 -5 -6 -10 -10 -7 -11 -10
-2 -10 7 0 17 -12 22 -26 10 -26 12 -27 86 -22 89 6 105 17 84 55 -12 21 -24
28 -54 30 -22 1 -44 7 -50 13 -15 15 -38 12 -65 -10z"/>
<path d="M6817 1974 c-10 -11 3 -24 24 -24 23 0 25 15 3 24 -19 7 -19 7 -27 0z"/>
<path d="M6443 1953 c9 -2 23 -2 30 0 6 3 -1 5 -18 5 -16 0 -22 -2 -12 -5z"/>
<path d="M17 1870 c-11 -13 -17 -37 -17 -70 0 -43 3 -50 20 -50 13 0 26 14 40
42 23 48 25 69 8 86 -17 17 -31 15 -51 -8z"/>
<path d="M6284 1809 c-3 -6 -16 -9 -28 -7 -19 4 -21 1 -18 -24 6 -38 11 -39
67 -23 46 14 95 11 95 -6 0 -14 153 -5 158 9 3 10 7 10 19 0 13 -10 15 -9 12
6 -3 13 -22 25 -61 38 -57 19 -58 19 -114 -1 l-56 -21 -28 20 c-32 23 -36 24
-46 9z"/>
<path d="M6536 1703 c-22 -12 -26 -17 -15 -24 22 -14 37 -11 49 10 14 27 1 32
-34 14z"/>
<path d="M6335 1690 c-7 -11 35 -31 49 -22 5 3 1 11 -9 19 -22 16 -32 16 -40
3z"/>
<path d="M1035 1485 c-17 -14 -18 -17 -4 -30 13 -14 31 -19 85 -29 7 -1 18 -7
25 -13 8 -5 34 -13 58 -17 38 -6 50 -3 93 25 27 17 46 34 42 38 -11 11 -49 6
-61 -9 -10 -13 -14 -12 -32 4 -16 15 -31 18 -71 14 -42 -4 -50 -2 -55 13 -8
23 -51 25 -80 4z"/>
</g>
</svg>
